<svg width="30" height="30" viewBox="0 0 20 20">
<path fill-rule="evenodd" clip-rule="evenodd"
    d="M18.2857 13.1429V8C18.2857 4.5285 15.4715 1.71429 12 1.71429C8.5285 1.71429 5.71429 4.5285 5.71429 8C5.71429 11.4715 8.5285 14.2857 12 14.2857H17.1429C17.774 14.2857 18.2857 13.774 18.2857 13.1429ZM12 0C7.58172 0 4 3.58172 4 8C4 12.4183 7.58172 16 12 16H17.1429C18.7208 16 20 14.7208 20 13.1429V8C20 3.58172 16.4183 0 12 0Z"
    fill="currentColor"></path>
<path
    d="M10.2857 8C10.2857 8.63118 9.77404 9.14286 9.14286 9.14286C8.51167 9.14286 8 8.63118 8 8C8 7.36882 8.51167 6.85714 9.14286 6.85714C9.77404 6.85714 10.2857 7.36882 10.2857 8Z"
    fill="currentColor"></path>
<path
    d="M13.1431 8C13.1431 8.63118 12.6315 9.14286 12.0003 9.14286C11.3691 9.14286 10.8574 8.63118 10.8574 8C10.8574 7.36882 11.3691 6.85714 12.0003 6.85714C12.6315 6.85714 13.1431 7.36882 13.1431 8Z"
    fill="currentColor"></path>
<path
    d="M15.9996 8C15.9996 8.63118 15.4879 9.14286 14.8567 9.14286C14.2255 9.14286 13.7139 8.63118 13.7139 8C13.7139 7.36882 14.2255 6.85714 14.8567 6.85714C15.4879 6.85714 15.9996 7.36882 15.9996 8Z"
    fill="currentColor"></path>
<path
    d="M6.28571 12C6.28571 12.6312 5.77404 13.1429 5.14286 13.1429C4.51167 13.1429 4 12.6312 4 12C4 11.3688 4.51167 10.8571 5.14286 10.8571C5.77404 10.8571 6.28571 11.3688 6.28571 12Z"
    fill="currentColor"></path>
<path fill-rule="evenodd" clip-rule="evenodd"
    d="M12.849 16H14.9297C13.5465 18.3912 10.9611 20 8 20H2.85714C1.27919 20 0 18.7208 0 17.1429V12C0 8.7556 1.93132 5.96228 4.70701 4.70701L4.70524 4.71092C4.38557 5.41879 4.16591 6.18152 4.06427 6.98109C4.05878 7.02433 4.05363 7.06768 4.04882 7.11113C2.62477 8.26348 1.71429 10.0254 1.71429 12V17.1429C1.71429 17.774 2.22596 18.2857 2.85714 18.2857H8C9.95193 18.2857 11.6961 17.396 12.849 16Z"
    fill="currentColor"></path>
</svg>