<svg width="29" height="25" viewBox="0 0 29 25" fill="none" xmlns="http://www.w3.org/2000/svg">
<path fill-rule="evenodd" clip-rule="evenodd" d="M12.9062 8.09234C14.9843 7.11522 16.3767 10.3552 14.2814 11.2991C13.2742 11.7528 12.2774 11.1099 11.9656 10.4318C11.5996 9.63592 11.8221 8.60211 12.9062 8.09234ZM19.3761 8.06744C21.6175 7.20776 22.7876 10.5104 20.6822 11.3244C18.3709 12.218 17.406 8.82309 19.3761 8.06744ZM28.6928 10.7853V9.22065C28.5415 8.85533 28.4206 7.81259 28.2527 7.27911C27.6962 5.51186 26.4264 3.87256 25.0833 2.79277C18.4186 -2.56522 7.27787 0.172556 5.213 7.7147C3.536 13.8403 8.67309 18.258 13.2733 19.4534C14.9838 19.8979 16.166 19.8811 17.9893 19.8459C18.7571 19.8311 19.2016 20.2693 19.7658 20.6079C20.8084 21.2336 24.4643 23.4014 25.0882 21.829C25.3945 21.0567 24.2532 19.3308 24.4242 17.6152C24.9184 17.1351 25.4446 16.8451 25.8927 16.4051C26.284 16.0209 26.7777 15.4271 27.1561 14.8664C28.5093 12.8618 28.3124 11.683 28.6928 10.7853Z" fill="#10A1F4"/>
<path fill-rule="evenodd" clip-rule="evenodd" d="M0 12.5572V13.916C0.502571 15.1685 0.0847325 17.4477 3.80986 20.2389C5.19008 21.2731 3.40439 24.1105 3.54876 24.9663C5.23306 25.3438 8.74155 22.4295 9.64964 22.4262C12.1366 22.4171 12.9645 22.664 15.5701 21.7686L17.1613 20.9429C12.6378 21.0502 9.41286 19.9242 6.3811 16.901C5.26021 15.7833 4.19593 14.1543 3.79703 12.0977C3.16588 8.84373 4.1981 7.66566 4.64558 5.88513C3.15373 6.41387 1.27799 8.64752 0.58517 10.3533C0.312972 11.0234 0.234386 12.0166 0 12.5572Z" fill="#10A1F4"/>
</svg>
